<?xml version="1.0" encoding="UTF-8" standalone="no"?>
<svg
   xmlns:dc="http://purl.org/dc/elements/1.1/"
   xmlns:cc="http://creativecommons.org/ns#"
   xmlns:rdf="http://www.w3.org/1999/02/22-rdf-syntax-ns#"
   xmlns:svg="http://www.w3.org/2000/svg"
   xmlns="http://www.w3.org/2000/svg"
   xmlns:sodipodi="http://sodipodi.sourceforge.net/DTD/sodipodi-0.dtd"
   xmlns:inkscape="http://www.inkscape.org/namespaces/inkscape"
   viewBox="0 0 66 66"
   x="0px"
   y="0px"
   id="svg4199"
   version="1.1"
   inkscape:version="0.91 r13725"
   sodipodi:docname="fishbowl.svg"
   width="66"
   height="66">
  <metadata
     id="metadata4211">
    <rdf:RDF>
      <cc:Work
         rdf:about="">
        <dc:format>image/svg+xml</dc:format>
        <dc:type
           rdf:resource="http://purl.org/dc/dcmitype/StillImage" />
        <dc:title></dc:title>
      </cc:Work>
    </rdf:RDF>
  </metadata>
  <defs
     id="defs4209" />
  <sodipodi:namedview
     pagecolor="#ffffff"
     bordercolor="#666666"
     borderopacity="1"
     objecttolerance="10"
     gridtolerance="10"
     guidetolerance="10"
     inkscape:pageopacity="0"
     inkscape:pageshadow="2"
     inkscape:window-width="1920"
     inkscape:window-height="1017"
     id="namedview4207"
     showgrid="false"
     inkscape:zoom="5.6266667"
     inkscape:cx="-36.010558"
     inkscape:cy="10.951752"
     inkscape:window-x="0"
     inkscape:window-y="30"
     inkscape:window-maximized="1"
     inkscape:current-layer="svg4199" />
  <path
     d="m 13.759016,4.78687 c 0.170069,-0.122251 0.374231,-0.188015 0.58368,-0.188014 l 37.314794,1.3e-4 c 0.20945,1e-6 0.41361,0.06577 0.58368,0.188019 C 60.8133,10.948973 66,20.840968 66,31.6 66,49.8254 51.2254,64.6 33,64.6 14.774603,64.6 0,49.8254 0,31.6 0,20.840887 5.186776,10.948826 13.759016,4.78687 Z M 2.848102,24.375022 C 2.290912,26.708414 2,29.129791 2,31.6 c 0,17.12083 13.879173,31 31,31 17.12083,0 31,-13.87917 31,-31 0,-2.293381 -0.25075,-4.544671 -0.73255,-6.722538 -0.0354,0.01027 -0.0713,0.02062 -0.10766,0.03105 -0.93254,0.267289 -2.00933,0.533821 -3.21778,0.782131 -8.26026,1.697315 -17.606951,1.697315 -27.224176,-1.13128 C 23.44617,21.832402 14.422489,21.832402 6.460534,23.468421 5.303235,23.706222 4.275859,23.960523 3.39127,24.214067 3.183517,24.273617 3.002194,24.327624 2.848102,24.375019 Z M 62.77217,22.938651 C 60.87906,16.417131 56.87754,10.671247 51.33257,6.598985 L 14.667603,6.598857 C 9.357318,10.49871 5.462569,15.933511 3.479587,22.114545 4.255199,21.907261 5.11665,21.702779 6.057985,21.509354 c 8.260266,-1.697315 17.606956,-1.697315 27.224181,1.13128 9.271664,2.726961 18.295344,2.726961 26.257304,1.090942 1.1573,-0.237801 2.18467,-0.492102 3.06926,-0.745646 0.0564,-0.01618 0.11092,-0.03194 0.16344,-0.04728 z"
     id="path4201"
     inkscape:connector-curvature="0"
     style="fill:#ffffff;fill-rule:evenodd;stroke:#ffffff;stroke-width:3px"
     sodipodi:nodetypes="ssscsssscsssccssscccccccssscc" />
  <path
     style="fill:#000000;fill-rule:evenodd;stroke:#000000;stroke-width:0px;stroke-linecap:butt;stroke-linejoin:miter;stroke-opacity:1"
     d="M 3.5545024,23.345972 25.770142,22.812796 55.805687,26.367299 63.270142,25.300948 64.514218,41.118483 55.272512,54.447867 36.7891,63.156398 15.995261,58.71327 6.2203791,48.582938 1.2440758,35.075829 Z"
     id="path4244"
     inkscape:connector-curvature="0" />
</svg>
