<?xml version="1.0" encoding="UTF-8" standalone="no"?>
<!-- Generated by IcoMoon.io -->

<svg
   xmlns:dc="http://purl.org/dc/elements/1.1/"
   xmlns:cc="http://creativecommons.org/ns#"
   xmlns:rdf="http://www.w3.org/1999/02/22-rdf-syntax-ns#"
   xmlns:svg="http://www.w3.org/2000/svg"
   xmlns="http://www.w3.org/2000/svg"
   xmlns:sodipodi="http://sodipodi.sourceforge.net/DTD/sodipodi-0.dtd"
   xmlns:inkscape="http://www.inkscape.org/namespaces/inkscape"
   version="1.1"
   width="24"
   height="24"
   viewBox="0 0 24 24"
   id="svg2"
   inkscape:version="0.91 r13725"
   sodipodi:docname="tiles-table.svg">
  <metadata
     id="metadata12">
    <rdf:RDF>
      <cc:Work
         rdf:about="">
        <dc:format>image/svg+xml</dc:format>
        <dc:type
           rdf:resource="http://purl.org/dc/dcmitype/StillImage" />
        <dc:title>tiles-many</dc:title>
      </cc:Work>
    </rdf:RDF>
  </metadata>
  <defs
     id="defs10" />
  <sodipodi:namedview
     pagecolor="#ffffff"
     bordercolor="#666666"
     borderopacity="1"
     objecttolerance="10"
     gridtolerance="10"
     guidetolerance="10"
     inkscape:pageopacity="0"
     inkscape:pageshadow="2"
     inkscape:window-width="1920"
     inkscape:window-height="1017"
     id="namedview8"
     showgrid="false"
     inkscape:zoom="9.8333333"
     inkscape:cx="-0.54094378"
     inkscape:cy="10.783905"
     inkscape:window-x="0"
     inkscape:window-y="30"
     inkscape:window-maximized="1"
     inkscape:current-layer="svg2" />
  <title
     id="title4">tiles-many</title>
  <path
     d="m 1.7501875,8.9618805 2.9998125,0 c 0.828563,0 1.500187,0.671625 1.500187,1.5001875 l 0,2.999813 c 0,0.828563 -0.671624,1.500187 -1.500187,1.500187 l -2.9998125,0 C 0.921625,14.962068 0.25,14.290444 0.25,13.461881 l 0,-2.999813 C 0.25,9.6335055 0.921625,8.9618805 1.7501875,8.9618805 Z M 2.5,10.462068 c -0.414,0 -0.7498125,0.335813 -0.7498125,0.749813 l 0,1.500187 c 0,0.414 0.3358125,0.749813 0.7498125,0.749813 l 1.5001875,0 c 0.414,0 0.7498125,-0.335813 0.7498125,-0.749813 l 0,-1.500187 c 0,-0.414 -0.3358125,-0.749813 -0.7498125,-0.749813 z"
     id="path6"
     inkscape:connector-curvature="0"
     sodipodi:nodetypes="ssssssssssssssssss" />
  <path
     id="path4140"
     d="m 10.779006,0.35169492 2.999812,0 c 0.828563,0 1.500188,0.67162498 1.500188,1.50018748 l 0,2.9998125 c 0,0.828563 -0.671625,1.500187 -1.500188,1.500187 l -2.999812,0 c -0.8285617,0 -1.5001877,-0.671624 -1.5001877,-1.500187 l 0,-2.9998125 c 1e-6,-0.8285625 0.671626,-1.50018748 1.5001877,-1.50018748 z m 0.749813,1.50018748 c -0.414001,0 -0.749813,0.3358125 -0.749813,0.7498125 l 0,1.5001875 c 0,0.414 0.335812,0.7498125 0.749813,0.7498125 l 1.500187,0 c 0.414,0 0.749812,-0.3358125 0.749812,-0.7498125 l 0,-1.5001875 c 0,-0.414 -0.335812,-0.7498125 -0.749812,-0.7498125 z"
     inkscape:connector-curvature="0"
     sodipodi:nodetypes="ssssssssssssssssss" />
  <path
     d="m 9.2331985,5.851509 6.1520575,0 c 1.699229,0 3.076608,1.3432295 3.076608,3.0003265 l 0,5.9995315 c 0,1.6571 -1.377379,3.000329 -3.076608,3.000329 l -6.1520575,0 c -1.699228,0 -3.076606,-1.343229 -3.076606,-3.000329 l 0,-5.9995315 c 0,-1.657097 1.377378,-3.0003285 3.076606,-3.0003285 z m 1.5377265,3.0003265 c -0.8490386,0 -1.5377265,0.671613 -1.5377265,1.4996025 l 0,3.000328 c 0,0.827987 0.6886879,1.499601 1.5377265,1.499601 l 3.076606,0 c 0.849037,0 1.537725,-0.671614 1.537725,-1.499601 l 0,-3.000328 c 0,-0.8279895 -0.688688,-1.4996025 -1.537725,-1.4996025 z"
     id="path4142"
     inkscape:connector-curvature="0"
     sodipodi:nodetypes="ssssssssssssssssss" />
  <path
     id="path4144"
     d="m 10.779006,17.749813 2.999813,0 c 0.828563,0 1.500187,0.671625 1.500187,1.500187 l 0,2.999812 c 0,0.828563 -0.671624,1.500188 -1.500187,1.500188 l -2.999813,0 c -0.8285623,0 -1.5001873,-0.671625 -1.5001873,-1.500188 l 0,-2.999812 c 0,-0.828562 0.671625,-1.500187 1.5001873,-1.500187 z M 11.528819,19.25 c -0.414,0 -0.749813,0.335812 -0.749813,0.749813 l 0,1.500187 c 0,0.414 0.335813,0.749812 0.749813,0.749812 l 1.500187,0 c 0.414,0 0.749813,-0.335812 0.749813,-0.749812 l 0,-1.500187 c 0,-0.414001 -0.335813,-0.749813 -0.749813,-0.749813 z"
     inkscape:connector-curvature="0"
     sodipodi:nodetypes="ssssssssssssssssss" />
  <path
     d="m 19.538604,8.9618811 2.999812,0 c 0.828563,0 1.500188,0.671625 1.500188,1.5001869 l 0,2.999812 c 0,0.828563 -0.671625,1.500188 -1.500188,1.500188 l -2.999812,0 c -0.828562,0 -1.500187,-0.671625 -1.500187,-1.500188 l 0,-2.999812 c 0,-0.8285619 0.671625,-1.5001879 1.500187,-1.5001879 z m 0.749813,1.5001869 c -0.414001,0 -0.749813,0.335812 -0.749813,0.749813 l 0,1.500187 c 0,0.414 0.335812,0.749812 0.749813,0.749812 l 1.500187,0 c 0.414,0 0.749812,-0.335812 0.749812,-0.749812 l 0,-1.500187 c 0,-0.414001 -0.335812,-0.749813 -0.749812,-0.749813 z"
     id="path4142-0"
     inkscape:connector-curvature="0"
     sodipodi:nodetypes="ssssssssssssssssss" />
</svg>
