<?xml version="1.0" encoding="UTF-8" standalone="no"?>
<!-- Generated by IcoMoon.io -->

<svg
   xmlns:dc="http://purl.org/dc/elements/1.1/"
   xmlns:cc="http://creativecommons.org/ns#"
   xmlns:rdf="http://www.w3.org/1999/02/22-rdf-syntax-ns#"
   xmlns:svg="http://www.w3.org/2000/svg"
   xmlns="http://www.w3.org/2000/svg"
   xmlns:sodipodi="http://sodipodi.sourceforge.net/DTD/sodipodi-0.dtd"
   xmlns:inkscape="http://www.inkscape.org/namespaces/inkscape"
   version="1.1"
   width="24"
   height="24"
   viewBox="0 0 24 24"
   id="svg2"
   inkscape:version="0.91 r13725"
   sodipodi:docname="tiles-large.svg">
  <metadata
     id="metadata12">
    <rdf:RDF>
      <cc:Work
         rdf:about="">
        <dc:format>image/svg+xml</dc:format>
        <dc:type
           rdf:resource="http://purl.org/dc/dcmitype/StillImage" />
        <dc:title>tiles-many</dc:title>
      </cc:Work>
    </rdf:RDF>
  </metadata>
  <defs
     id="defs10" />
  <sodipodi:namedview
     pagecolor="#ffffff"
     bordercolor="#666666"
     borderopacity="1"
     objecttolerance="10"
     gridtolerance="10"
     guidetolerance="10"
     inkscape:pageopacity="0"
     inkscape:pageshadow="2"
     inkscape:window-width="1920"
     inkscape:window-height="1017"
     id="namedview8"
     showgrid="false"
     inkscape:zoom="3.4766083"
     inkscape:cx="-20.601467"
     inkscape:cy="19.956152"
     inkscape:window-x="0"
     inkscape:window-y="30"
     inkscape:window-maximized="1"
     inkscape:current-layer="svg2" />
  <title
     id="title4">tiles-many</title>
  <path
     d="m 1.9302951,6 6.8064096,0 c 1.8799623,0 3.4038433,1.194 3.4038433,2.667 l 0,5.333 c 0,1.473 -1.523881,2.667 -3.4038433,2.667 l -6.8064096,0 c -1.87996265,0 -3.4038428,-1.194 -3.4038428,-2.667 l 0,-5.333 C -1.4735477,7.194 0.05033245,6 1.9302951,6 Z M 3.6315784,8.667 C 2.6922352,8.667 1.9302951,9.264 1.9302951,10 l 0,2.667 c 0,0.736 0.7619401,1.333 1.7012833,1.333 l 3.403843,0 c 0.9393432,0 1.7012833,-0.597 1.7012833,-1.333 l 0,-2.667 c 0,-0.736 -0.7619401,-1.333 -1.7012833,-1.333 z"
     id="path6"
     inkscape:connector-curvature="0"
     sodipodi:nodetypes="ssssssssssssssssss" />
  <path
     id="path4140"
     d="m 15.263296,6 6.806408,0 c 1.879963,0 3.403844,1.194 3.403844,2.667 l 0,5.333 c 0,1.473 -1.523881,2.667 -3.403844,2.667 l -6.806408,0 c -1.879963,0 -3.403844,-1.194 -3.403844,-2.667 l 0,-5.333 C 11.859452,7.194 13.383333,6 15.263296,6 Z m 1.701282,2.667 c -0.939343,0 -1.701282,0.597 -1.701282,1.333 l 0,2.667 c 0,0.736 0.761939,1.333 1.701282,1.333 l 3.403844,0 c 0.939342,0 1.701282,-0.597 1.701282,-1.333 l 0,-2.667 c 0,-0.736 -0.76194,-1.333 -1.701282,-1.333 z"
     inkscape:connector-curvature="0"
     sodipodi:nodetypes="ssssssssssssssssss" />
</svg>
